#!OML:ASF F:\VICON\USERDATA\INSTALL\rory3\rory3.ASF
:FULLY-SPECIFIED
:DEGREES
2123
root 0.508833 16.1708 -0.969124 10.4753 13.8014 3.05165
lowerback 22.5422 2.47298 7.2142
upperback 5.57912 5.32601 5.5669
thorax -6.31345 2.52186 0.503345
lowerneck -10.1035 10.6145 0.262732
upperneck 15.7838 13.1111 7.41937
head 5.94123 6.93428 3.30115
rclavicle -1.59028e-015 0
rhumerus -12.7035 21.471 -77.2578
rradius 124.124
rwrist 22.9532
rhand 28.2294 7.39487
rfingers 7.12502
rthumb 52.1083 -12.6462
lclavicle -1.59028e-015 0
lhumerus -7.74565 -30.2566 83.591
lradius 120.155
lwrist 0.0977567
lhand 8.57029 34.6169
lfingers 7.12502
lthumb 33.7691 61.4516
rfemur -17.0974 13.858 10.8374
rtibia 25.7429
rfoot -17.0366 -26.7491
rtoes 0.75764
lfemur -17.5539 -18.1474 -17.3697
ltibia 12.321
lfoot -1.61811 3.96645
ltoes -9.9915
2124
root 0.508461 16.1756 -0.996155 10.7373 13.7584 3.18273
lowerback 22.88 2.4449 7.35439
upperback 5.82133 5.35306 5.78045
thorax -6.22879 2.53937 0.640435
lowerneck -10.0353 10.6782 0.300158
upperneck 15.9483 13.1854 7.39604
head 5.98314 6.96891 3.29723
rclavicle -1.22451e-013 -1.59028e-014
rhumerus -12.2025 21.5472 -76.9184
rradius 123.951
rwrist 22.8396
rhand 28.3793 7.23354
rfingers 7.12502
rthumb 52.2441 -12.726
lclavicle -1.22451e-013 -1.59028e-014
lhumerus -7.62621 -29.8712 83.8825
lradius 120.055
lwrist -0.0342815
lhand 8.94449 34.7599
lfingers 7.12502
lthumb 34.1246 61.516
rfemur -17.4902 13.8433 10.5583
rtibia 25.7659
rfoot -16.758 -26.7592
rtoes 0.199626
lfemur -17.7975 -18.1112 -17.4248
ltibia 12.0476
lfoot -1.46722 4.03875
ltoes -9.60923
2125
root 0.502802 16.18 -1.02445 10.9371 13.9031 2.97824
lowerback 23.192 2.36284 7.90695
upperback 6.05103 5.40768 6.03853
thorax -6.10669 2.56724 0.592106
lowerneck -10.0521 10.6964 0.400186
upperneck 16.1039 13.1897 7.35234
head 6.04568 6.97221 3.27912
rclavicle 6.99722e-014 3.81667e-014
rhumerus -11.904 21.532 -76.681
rradius 123.92
rwrist 22.9545
rhand 28.4084 7.01005
rfingers 7.12502
rthumb 52.2705 -12.9335
lclavicle 6.99722e-014 3.81667e-014
lhumerus -7.4587 -29.8053 83.9762
lradius 120.035
lwrist -0.0763617
lhand 9.17024 34.9608
lfingers 7.12502
lthumb 34.3389 61.6687
rfemur -17.876 13.8954 10.6923
rtibia 25.8027
rfoot -16.6544 -26.908
rtoes 0.293365
lfemur -18.0431 -18.0178 -17.0782
ltibia 11.6527
lfoot -1.04312 3.93315
ltoes -9.17936
2126
root 0.494128 16.185 -1.05269 11.1037 14.1474 2.77701
lowerback 23.523 2.25692 8.50231
upperback 6.27274 5.44567 6.27249
thorax -5.99492 2.58731 0.498601
lowerneck -10.0955 10.6965 0.57387
upperneck 16.2389 13.1613 7.28348
head 6.11485 6.96194 3.24166
rclavicle -4.77083e-015 -1.17681e-013
rhumerus -11.7875 21.4453 -76.5676
rradius 123.96
rwrist 23.2935
rhand 28.4397 6.97452
rfingers 7.12502
rthumb 52.2988 -12.9519
lclavicle -4.77083e-015 -1.17681e-013
lhumerus -7.25303 -30.0326 83.7457
lradius 119.985
lwrist -0.00831282
lhand 9.16922 35.0435
lfingers 7.12502
lthumb 34.338 61.7516
rfemur -18.2329 13.9852 10.8548
rtibia 25.9282
rfoot -16.9513 -27.0569
rtoes 1.16871
lfemur -18.1315 -17.8479 -16.7484
ltibia 10.9973
lfoot -0.49269 3.6757
ltoes -9.01528
2127
root 0.491264 16.1871 -1.0777 11.3145 14.2488 3.27162
lowerback 23.8589 2.20631 8.41037
upperback 6.56042 5.37919 6.3545
thorax -5.86792 2.5659 0.64877
lowerneck -10.0365 10.7287 0.71365
upperneck 16.3198 13.1844 7.22427
head 6.14434 6.97422 3.20576
rclavicle 6.36111e-014 -9.54166e-015
rhumerus -11.6372 21.4649 -76.458
rradius 124.019
rwrist 23.6154
rhand 28.5176 6.8957
rfingers 7.12502
rthumb 52.3693 -12.988
lclavicle 6.36111e-014 -9.54166e-015
lhumerus -7.07838 -30.1866 83.4332
lradius 119.892
lwrist 0.140518
lhand 9.06303 35.0711
lfingers 7.12502
lthumb 34.2371 61.802
rfemur -18.4721 13.8586 10.2653
rtibia 26.1
rfoot -17.3375 -26.9485
rtoes 2.1513
lfemur -17.9676 -17.7777 -17.2643
ltibia 10.2687
lfoot -0.00334502 3.51206
ltoes -9.24092
2128
root 0.494881 16.1862 -1.09856 11.5803 14.2596 4.19724
lowerback 24.141 2.17038 7.93489
upperback 6.88022 5.22075 6.30154
thorax -5.70334 2.50455 0.892818
lowerneck -9.97057 10.8044 0.827244
upperneck 16.3583 13.26 7.24046
head 6.14991 7.0161 3.19721
rclavicle -3.18055e-015 -9.54166e-015
rhumerus -11.4041 21.437 -76.3919
rradius 124.098
rwrist 23.5215
rhand 28.7751 6.87665
rfingers 7.12502
rthumb 52.6024 -12.8643
lclavicle -3.18055e-015 -9.54166e-015
lhumerus -6.99083 -30.1512 83.1613
lradius 119.91
lwrist 0.128314
lhand 9.04037 34.9814
lfingers 7.12502
lthumb 34.2156 61.717
rfemur -18.6348 13.4505 9.21275
rtibia 26.2573
rfoot -17.4517 -26.656
rtoes 2.55594
lfemur -17.7511 -18.0607 -18.2233
ltibia 9.60523
lfoot 0.431207 3.70194
ltoes -9.71601
2129
root 0.49583 16.1868 -1.12044 11.7097 14.3687 4.50893
lowerback 24.4481 2.05346 8.05554
upperback 7.17969 5.11278 6.37235
thorax -5.5249 2.4631 0.928015
lowerneck -9.88364 10.879 0.960333
upperneck 16.2591 13.3392 7.23939
head 6.11086 7.05838 3.17264
rclavicle -9.70069e-014 -3.49861e-014
rhumerus -11.1854 21.4263 -76.3488
rradius 124.136
rwrist 23.6854
rhand 28.4739 6.88076
rfingers 7.12502
rthumb 52.3298 -13.0269
lclavicle -9.70069e-014 -3.49861e-014
lhumerus -6.92066 -30.1154 83.0073
lradius 119.95
lwrist -0.106161
lhand 8.98105 34.7939
lfingers 7.12502
lthumb 34.1593 61.5422
rfemur -18.7844 13.2416 8.83834
rtibia 26.36
rfoot -17.3994 -26.6169
rtoes 2.46327
lfemur -17.617 -18.2966 -18.4896
ltibia 9.01244
lfoot 0.791994 3.86661
ltoes -10.0306
2130
root 0.492125 16.19 -1.14623 11.8086 14.4941 4.09904
lowerback 24.7347 1.94397 8.74671
upperback 7.43405 5.16897 6.66564
thorax -5.34604 2.49737 0.846449
lowerneck -9.89212 10.9201 0.989762
upperneck 16.1489 13.3911 7.22324
head 6.07887 7.08144 3.16202
rclavicle 6.20208e-014 7.31528e-014
rhumerus -11.1691 21.6242 -76.3211
rradius 124.235
rwrist 24.4832
rhand 27.392 6.73296
rfingers 7.12502
rthumb 51.3477 -13.7523
lclavicle 6.20208e-014 7.31528e-014
lhumerus -6.6946 -30.0989 82.892
lradius 119.918
lwrist -0.288984
lhand 8.99953 34.6404
lfingers 7.12502
lthumb 34.1768 61.3848
rfemur -19.1369 13.4092 9.15644
rtibia 26.3873
rfoot -17.458 -26.7397
rtoes 2.57364
lfemur -17.8161 -18.3671 -17.9079
ltibia 8.66079
lfoot 1.04632 3.99708
ltoes -10.3121
2131
root 0.48882 16.1919 -1.17096 12.0493 14.5046 3.84225
lowerback 25.0374 1.92126 9.25575
upperback 7.57568 5.30348 6.90052
thorax -5.30709 2.56265 0.777533
lowerneck -10.0489 10.9266 0.868607
upperneck 16.2824 13.3667 7.47385
head 6.12134 7.08369 3.26977
rclavicle 9.54166e-015 -1.59028e-014
rhumerus -11.4372 21.7002 -76.4131
rradius 124.526
rwrist 25.0029
rhand 26.9069 6.79673
rfingers 7.12502
rthumb 50.9059 -13.937
lclavicle 9.54166e-015 -1.59028e-014
lhumerus -6.55671 -30.0956 82.8066
lradius 119.824
lwrist -0.287315
lhand 9.31247 34.965
lfingers 7.12502
lthumb 34.474 61.6423
rfemur -19.6501 13.5757 9.23461
rtibia 26.3475
rfoot -17.139 -26.9697
rtoes 1.92691
lfemur -18.3335 -18.3531 -17.4766
ltibia 8.72072
lfoot 1.10287 4.10707
ltoes -10.0671
2132
root 0.483351 16.1904 -1.19301 12.3911 14.4743 3.98657
lowerback 25.3628 1.93381 9.39469
upperback 7.66712 5.3916 6.9721
thorax -5.35656 2.60252 0.743815
lowerneck -10.1955 10.9153 0.769086
upperneck 16.3497 13.3081 7.78556
head 6.1397 7.07533 3.38679
rclavicle 5.24792e-014 3.49861e-014
rhumerus -11.3721 21.545 -76.4586
rradius 124.543
rwrist 25.0122
rhand 26.71 6.95954
rfingers 7.12502
rthumb 50.7263 -13.8733
lclavicle 5.24792e-014 3.49861e-014
lhumerus -6.52028 -30.2536 82.6912
lradius 119.699
lwrist -0.153527
lhand 9.25068 35.5771
lfingers 7.12502
lthumb 34.4153 62.2677
rfemur -20.1885 13.5678 8.91909
rtibia 26.3785
rfoot -16.711 -27.1559
rtoes 0.919576
lfemur -18.8448 -18.3899 -17.4685
ltibia 8.79485
lfoot 1.145 4.20833
ltoes -9.66602
2133
root 0.477194 16.1905 -1.21119 12.7403 14.5067 4.08274
lowerback 25.5923 1.9964 9.5147
upperback 7.79454 5.53087 7.13836
thorax -5.32721 2.67097 0.815039
lowerneck -10.4342 10.8114 0.621083
upperneck 16.3283 13.158 7.95168
head 6.15652 7.00942 3.46248
rclavicle -6.83819e-014 -3.49861e-014
rhumerus -11.0293 21.3114 -76.1801
rradius 124.424
rwrist 24.8337
rhand 26.3756 6.93192
rfingers 7.12502
rthumb 50.421 -14.0669
lclavicle -6.83819e-014 -3.49861e-014
lhumerus -6.49514 -30.6024 82.7533
lradius 119.733
lwrist 0.0234345
lhand 8.73776 35.7921
lfingers 7.12502
lthumb 33.9282 62.5918
rfemur -20.7346 13.5135 8.68965
rtibia 26.5453
rfoot -16.7115 -27.1443
rtoes 1.08146
lfemur -19.204 -18.4748 -17.3857
ltibia 8.57603
lfoot 1.33363 4.32919
ltoes -9.43116
2134
root 0.471624 16.1925 -1.22473 13.1254 14.4901 4.28895
lowerback 25.837 2.07194 9.47214
upperback 7.81654 5.65859 7.26901
thorax -5.43755 2.72614 0.935386
lowerneck -10.5101 10.7208 0.464535
upperneck 16.3972 13.0108 8.22634
head 6.16624 6.95243 3.56625
rclavicle 6.20208e-014 1.27222e-014
rhumerus -11.1458 21.1219 -76.1139
rradius 124.467
rwrist 24.6615
rhand 26.4698 7.19326
rfingers 7.12502
rthumb 50.507 -13.7591
lclavicle 6.20208e-014 1.27222e-014
lhumerus -6.6342 -30.8554 82.868
lradius 119.878
lwrist 0.287899
lhand 8.51025 35.9091
lfingers 7.12502
lthumb 33.712 62.7564
rfemur -21.2934 13.4835 8.34605
rtibia 26.7935
rfoot -16.9101 -27.0782
rtoes 1.5718
lfemur -19.4635 -18.5435 -17.4378
ltibia 8.1928
lfoot 1.60042 4.44691
ltoes -9.39292
2135
root 0.465989 16.1899 -1.23776 13.4971 14.4269 4.53089
lowerback 26.22 2.09169 9.30164
upperback 7.67498 5.7186 7.35613
thorax -5.81231 2.73494 1.08629
lowerneck -10.1859 10.7552 0.496362
upperneck 16.5074 13.0147 8.45232
head 6.13192 6.9705 3.61417
rclavicle 4.13472e-014 7.95139e-014
rhumerus -11.746 21.1628 -76.4697
rradius 124.657
rwrist 24.619
rhand 27.3336 7.60219
rfingers 7.12502
rthumb 51.2946 -12.9133
lclavicle 4.13472e-014 7.95139e-014
lhumerus -7.08976 -30.9294 83.0482
lradius 120.079
lwrist 0.500063
lhand 8.56617 36.6683
lfingers 7.12502
lthumb 33.7652 63.5039
rfemur -21.8168 13.4725 7.9822
rtibia 27.0138
rfoot -16.8254 -27.1279
rtoes 1.09239
lfemur -19.7394 -18.5792 -17.5464
ltibia 7.91691
lfoot 1.79196 4.54034
ltoes -9.30724
